<?xml version="1.0" standalone="no"?>
<!DOCTYPE svg PUBLIC "-//W3C//DTD SVG 20010904//EN"
 "http://www.w3.org/TR/2001/REC-SVG-20010904/DTD/svg10.dtd">
<svg version="1.0" xmlns="http://www.w3.org/2000/svg"
 width="32.000000pt" height="32.000000pt" viewBox="0 0 32.000000 32.000000"
 preserveAspectRatio="xMidYMid meet">

<g transform="translate(0.000000,32.000000) scale(0.100000,-0.100000)"
fill="#000000" stroke="none">
<path d="M108 205 c-41 -31 -48 -41 -48 -70 l0 -35 49 0 c35 0 50 -4 53 -14 2
-11 16 -5 51 21 40 30 47 40 47 69 l0 34 -49 0 c-37 0 -50 4 -53 16 -2 12 -13
8 -50 -21z m52 -14 c0 -6 21 -11 47 -13 l47 -3 -44 -35 c-28 -22 -45 -30 -48
-22 -2 7 -21 12 -43 12 -48 0 -49 11 -6 44 34 27 47 32 47 17z"/>
</g>
</svg>
